<mxfile modified="2022-09-25T13:06:02.514Z" host="app.diagrams.net" agent="5.0 (Windows NT 10.0; Win64; x64) AppleWebKit/537.36 (KHTML, like Gecko) Chrome/105.0.0.0 Safari/537.36" etag="WHp1HJLpKlE9WZwa6RhS" version="20.3.6" type="github">
  <diagram id="WI9T0HZ2pTsCkuznbFz-" name="Page-1">
    <mxGraphModel dx="1200" dy="1299" grid="1" gridSize="10" guides="1" tooltips="1" connect="1" arrows="1" fold="1" page="1" pageScale="1" pageWidth="1169" pageHeight="827" math="0" shadow="0">
      <root>
        <mxCell id="0" />
        <mxCell id="1" parent="0" />
        <mxCell id="MW6b67Ew3tbeAm4IlGql-18" style="edgeStyle=orthogonalEdgeStyle;rounded=0;orthogonalLoop=1;jettySize=auto;html=1;entryX=0;entryY=0.5;entryDx=0;entryDy=0;" edge="1" parent="1" source="MW6b67Ew3tbeAm4IlGql-1" target="MW6b67Ew3tbeAm4IlGql-2">
          <mxGeometry relative="1" as="geometry" />
        </mxCell>
        <mxCell id="MW6b67Ew3tbeAm4IlGql-1" value="" style="image;html=1;image=img/lib/clip_art/networking/Wireless_Router_128x128.png" vertex="1" parent="1">
          <mxGeometry x="40" y="240" width="80" height="80" as="geometry" />
        </mxCell>
        <mxCell id="MW6b67Ew3tbeAm4IlGql-19" style="edgeStyle=orthogonalEdgeStyle;rounded=0;orthogonalLoop=1;jettySize=auto;html=1;" edge="1" parent="1" target="MW6b67Ew3tbeAm4IlGql-8">
          <mxGeometry relative="1" as="geometry">
            <mxPoint x="240" y="370" as="sourcePoint" />
            <Array as="points">
              <mxPoint x="240" y="360" />
            </Array>
          </mxGeometry>
        </mxCell>
        <mxCell id="MW6b67Ew3tbeAm4IlGql-24" style="edgeStyle=orthogonalEdgeStyle;rounded=0;orthogonalLoop=1;jettySize=auto;html=1;" edge="1" parent="1" source="MW6b67Ew3tbeAm4IlGql-2" target="MW6b67Ew3tbeAm4IlGql-23">
          <mxGeometry relative="1" as="geometry">
            <Array as="points">
              <mxPoint x="240" y="510" />
            </Array>
          </mxGeometry>
        </mxCell>
        <mxCell id="MW6b67Ew3tbeAm4IlGql-25" style="edgeStyle=orthogonalEdgeStyle;rounded=0;orthogonalLoop=1;jettySize=auto;html=1;" edge="1" parent="1" source="MW6b67Ew3tbeAm4IlGql-2" target="MW6b67Ew3tbeAm4IlGql-5">
          <mxGeometry relative="1" as="geometry">
            <Array as="points">
              <mxPoint x="240" y="50" />
            </Array>
          </mxGeometry>
        </mxCell>
        <mxCell id="MW6b67Ew3tbeAm4IlGql-26" style="edgeStyle=orthogonalEdgeStyle;rounded=0;orthogonalLoop=1;jettySize=auto;html=1;" edge="1" parent="1" source="MW6b67Ew3tbeAm4IlGql-2" target="MW6b67Ew3tbeAm4IlGql-4">
          <mxGeometry relative="1" as="geometry">
            <Array as="points">
              <mxPoint x="240" y="190" />
            </Array>
          </mxGeometry>
        </mxCell>
        <mxCell id="MW6b67Ew3tbeAm4IlGql-2" value="" style="image;html=1;image=img/lib/clip_art/networking/Switch_128x128.png" vertex="1" parent="1">
          <mxGeometry x="200" y="240" width="80" height="80" as="geometry" />
        </mxCell>
        <mxCell id="MW6b67Ew3tbeAm4IlGql-4" value="客厅" style="sketch=0;outlineConnect=0;fontColor=#232F3E;gradientColor=none;fillColor=#4D27AA;strokeColor=none;dashed=0;verticalLabelPosition=bottom;verticalAlign=top;align=center;html=1;fontSize=12;fontStyle=0;aspect=fixed;pointerEvents=1;shape=mxgraph.aws4.mesh;" vertex="1" parent="1">
          <mxGeometry x="340" y="140" width="78" height="77" as="geometry" />
        </mxCell>
        <mxCell id="MW6b67Ew3tbeAm4IlGql-5" value="卧室" style="sketch=0;outlineConnect=0;fontColor=#232F3E;gradientColor=none;fillColor=#4D27AA;strokeColor=none;dashed=0;verticalLabelPosition=bottom;verticalAlign=top;align=center;html=1;fontSize=12;fontStyle=0;aspect=fixed;pointerEvents=1;shape=mxgraph.aws4.mesh;" vertex="1" parent="1">
          <mxGeometry x="340" width="78" height="77" as="geometry" />
        </mxCell>
        <mxCell id="MW6b67Ew3tbeAm4IlGql-8" value="机柜" style="sketch=0;outlineConnect=0;fontColor=#232F3E;gradientColor=none;fillColor=#4D27AA;strokeColor=none;dashed=0;verticalLabelPosition=bottom;verticalAlign=top;align=center;html=1;fontSize=12;fontStyle=0;aspect=fixed;pointerEvents=1;shape=mxgraph.aws4.mesh;" vertex="1" parent="1">
          <mxGeometry x="340" y="320" width="78" height="77" as="geometry" />
        </mxCell>
        <mxCell id="MW6b67Ew3tbeAm4IlGql-14" value="电视" style="shape=image;html=1;verticalAlign=top;verticalLabelPosition=bottom;labelBackgroundColor=#ffffff;imageAspect=0;aspect=fixed;image=https://cdn2.iconfinder.com/data/icons/80-s-stuffs-outline/62/Asset_14-128.png" vertex="1" parent="1">
          <mxGeometry x="521" y="114.5" width="128" height="128" as="geometry" />
        </mxCell>
        <mxCell id="MW6b67Ew3tbeAm4IlGql-15" value="台式机" style="shape=image;html=1;verticalAlign=top;verticalLabelPosition=bottom;labelBackgroundColor=#ffffff;imageAspect=0;aspect=fixed;image=https://cdn4.iconfinder.com/data/icons/software-engineering-and-video-gaming/512/619_Computer_desktop_gaming_pc_personal-128.png" vertex="1" parent="1">
          <mxGeometry x="521" y="430" width="128" height="128" as="geometry" />
        </mxCell>
        <mxCell id="MW6b67Ew3tbeAm4IlGql-16" value="PVE" style="sketch=0;pointerEvents=1;shadow=0;dashed=0;html=1;strokeColor=none;fillColor=#005F4B;labelPosition=center;verticalLabelPosition=bottom;verticalAlign=top;align=center;outlineConnect=0;shape=mxgraph.veeam2.nas;" vertex="1" parent="1">
          <mxGeometry x="521" y="310" width="49" height="70" as="geometry" />
        </mxCell>
        <mxCell id="MW6b67Ew3tbeAm4IlGql-17" value="nas备份" style="sketch=0;pointerEvents=1;shadow=0;dashed=0;html=1;strokeColor=none;fillColor=#DF8C42;labelPosition=center;verticalLabelPosition=bottom;verticalAlign=top;align=center;outlineConnect=0;shape=mxgraph.veeam2.nas_backup;" vertex="1" parent="1">
          <mxGeometry x="640" y="310" width="50" height="70" as="geometry" />
        </mxCell>
        <mxCell id="MW6b67Ew3tbeAm4IlGql-23" value="机柜" style="sketch=0;outlineConnect=0;fontColor=#232F3E;gradientColor=none;fillColor=#4D27AA;strokeColor=none;dashed=0;verticalLabelPosition=bottom;verticalAlign=top;align=center;html=1;fontSize=12;fontStyle=0;aspect=fixed;pointerEvents=1;shape=mxgraph.aws4.mesh;" vertex="1" parent="1">
          <mxGeometry x="340" y="470" width="78" height="77" as="geometry" />
        </mxCell>
      </root>
    </mxGraphModel>
  </diagram>
</mxfile>
